# xmcd
#
# Track frame offsets:
#	225
#	20615
#	34359
#	44898
#	56425
#	70232
#	82607
#	94505
#	106435
#	121049
#	133402
#	144382
#	156267
#	167523
#	179060
#	190088
#	201036
#	216362
#	228854
#	242280
#	253173
#	273179
#
# Disc length: 3892 seconds
#
# Revision: 0
# Processed by: cddbd v1.5.2PL0 Copyright (c) Steve Scherf et al.
# Submitted via: EasyCDDAExtractor 2010.6.0.0
#
DISCID=370f3116
DTITLE=The 101 Strings Orchestra - The Country Collection
DYEAR=1900
DGENRE=
TTITLE0=Lovesick blues
TTITLE1=Your Cheating Heart
TTITLE2=I Cant Stop Loving You
TTITLE3=Jambalaya
TTITLE4=Have You Ever Been Lonely?
TTITLE5=Kaw Liga
TTITLE6=Bouquet Of Roses
TTITLE7=Wabash Cannonball
TTITLE8=Cold Cold Heart
TTITLE9=Half As Much
TTITLE10=Kind Of The Road
TTITLE11=Crazy
TTITLE12=Send Me The Pillow That You Dream On
TTITLE13=Little Green Apples
TTITLE14=Take These Chains from My Heart
TTITLE15=Tennessee Waltz
TTITLE16=Ode To Billie Joe
TTITLE17=I Dont Hurt Anymore
TTITLE18=Four Walls
TTITLE19=You Are My Sunshine
TTITLE20=In The Jailhouse Now
TTITLE21=An American Trilogy
EXTD=
EXTT0=
EXTT1=
EXTT2=
EXTT3=
EXTT4=
EXTT5=
EXTT6=
EXTT7=
EXTT8=
EXTT9=
EXTT10=
EXTT11=
EXTT12=
EXTT13=
EXTT14=
EXTT15=
EXTT16=
EXTT17=
EXTT18=
EXTT19=
EXTT20=
EXTT21=
PLAYORDER=
